<?xml version="1.0" encoding="utf-8"?>
<!-- Designed by Vexels.com - 2016 All Rights Reserved - https://vexels.com/terms-and-conditions/  -->

<svg version="1.0" id="Capa_1" xmlns="http://www.w3.org/2000/svg" xmlns:xlink="http://www.w3.org/1999/xlink" x="0px" y="0px"
	 width="1200px" height="1200px" viewBox="0 0 1200 1200" enable-background="new 0 0 1200 1200" xml:space="preserve">
<g>
	<g>
		<defs>
			<polygon id="SVGID_7_" points="716.683,-344.917 599.991,-450.332 483.347,-344.917 483.347,-861.095 716.683,-861.095 			"/>
		</defs>
		<clipPath id="SVGID_2_">
			<use xlink:href="#SVGID_7_"  overflow="visible"/>
		</clipPath>
		<g clip-path="url(#SVGID_2_)">
			<polygon fill="#D92938" points="1169.982,-812.873 225.657,55.651 252.58,84.89 1196.903,-783.618 			"/>
			<polygon fill="#FFFFFF" points="1143.06,-842.16 198.721,26.364 225.657,55.651 1169.982,-812.873 			"/>
			<polygon fill="#D92938" points="1116.123,-871.447 171.814,-2.923 198.721,26.364 1143.06,-842.16 			"/>
		</g>
	</g>
</g>
<path fill="#D92128" d="M772.827,557.496l5.95-7.068l-52.408-30.471l-2.609,9.665l-4.447-2.237l-16.359,25.28
	c0,0,0-4.088-4.832-8.187c-4.831-4.074-16.36-9.292-17.838-13.366c-1.503-4.099-4.832-11.155-4.832-11.155
	s-2.608-30.843-14.135-43.861c-11.504-12.994-14.857-13.751-23.031-15.988c0,0,2.235-5.565-2.608-7.789l-2.596-0.373l-10.025-31.973
	c0,0,5.193-4.086,4.075-10.037c-1.119-5.95-5.193-26.397-5.193-26.397l0.745-1.839c0,0,5.938,1.839,0-10.037
	c0,0,1.839-5.216,1.467-13.764l54.631-4.086l-54.631-5.193l-1.839-8.198l47.936-21.18l-51.663,12.273c0,0-3.714-4.459-9.663-8.908
	l29.365-35.327l-38.644,30.111c0,0-5.962-2.981-14.497-2.981l-10.422-46.458l-0.745,46.097c0,0-10.409,0.734-17.825,4.832
	l-41.266-28.62l31.962,34.197c0,0-4.845,4.075-7.428,8.919l-39.39,0.734c0,0-1.491-34.943-7.441-53.515
	c-5.95-18.595-8.558-41.999-8.558-58.73c0-16.72-0.373-30.1-4.82-37.167c-4.484-7.055-5.95-11.888-8.547-11.888l0.373-8.931
	c0,0,7.057-4.447,2.597-8.162l-0.373-2.992c0,0,17.465-0.373,18.955-8.162c0,0,7.057-2.608,0-9.292v-7.814l3.715-6.322h-3.715
	l1.478-4.448l-6.311,1.491l-1.491-4.831l-5.95,2.969h-4.459l0.373-4.099l-4.447,0.372l-0.746,0.758v-8.559
	c10.038-4.086,9.28-19.339,9.665-24.905c0.373-5.577,1.478-12.994,1.478-12.994c-6.695,0.746-8.919,8.535-8.919,8.535
	c2.596-8.535-4.832-15.242-4.832-15.242c0.373,3.342-2.608,10.037-2.608,10.037c-0.373-2.969-2.957-4.82-2.957-4.82
	c-0.385,3.331-7.44,9.652-7.44,9.652c-0.373-4.459-7.441-4.832-7.441-4.832c3.354,2.981,0.373,10.038-5.205,18.957
	c-5.565,8.931,3.727,15.253,3.727,15.253l0.204,7.586l-3.186,0.576l0.745,1.864l-5.961,0.373l-3.329-1.478l-2.97,1.105l0.373,2.596
	h-8.185l2.235,3.354l-4.832,0.734l4.459,4.471v6.311c0,0-6.682,5.578-3.353,10.038c0,0,0.745,4.832,4.099,6.311
	c3.342,1.491,8.174,3.365,8.174,3.365s0.372,11.131,6.695,16.336c0,0-8.919,5.95-2.235,12.657c0,0-2.97,5.565,2.235,10.397
	c0,0-1.503,1.118-1.503,5.95c0,4.832,3.727,12.621,7.068,18.944l0.746,5.589c0,0-2.596,0.732-1.107,5.192
	c0,0-2.608,2.237-0.372,4.832c2.223,2.621,0.372,5.577,4.459,6.323c0,0-2.608,3.33,0.373,5.565c0,0-2.237,4.845,1.85,8.919
	c0,0,0,10.782-0.372,20.82c-0.373,10.036-0.373,31.589,3.353,45.351c3.715,13.751,4.459,13.751,6.696,19.701
	c2.212,5.95,0.373,11.888,2.212,15.975c1.862,4.099,1.118,8.546,1.118,8.546s-10.026,17.104-14.857,27.887
	c-4.833,10.782-7.069,24.148-5.95,34.186c1.118,10.036,4.086,18.582,7.8,21.18c3.727,2.608,7.801,0.757,8.931,3.353
	c1.119,2.608,5.193,1.851,5.193,1.851s-7.068,6.696-7.068,14.869c0,8.174,8.931,6.323,8.931,6.323s1.105,7.801,6.311,10.026
	c0,0-4.832,20.073,0.745,23.066c0,0,2.236,4.447-1.491,10.397c-3.702,5.95-3.329,13.005-0.36,14.869
	c2.981,1.851,6.696,13.007,10.77,17.093c4.099,4.099,2.981,10.782,4.459,15.603c0,0-18.955,37.911-21.924,61.7
	c-2.981,23.788,7.801,30.855,20.446,28.992c0,0,3.342,5.205-1.864,16.359c-5.192,11.155-15.23,47.577-8.907,57.974
	c6.298,10.409,1.851,16.743,7.044,26.769c0,0-1.094,21.553,2.981,33.44c0,0,0.372,13.391,2.223,21.937
	c0,0-6.298,14.112-6.298,26.385c0,12.272,4.075,17.477,4.075,17.477s-2.608,4.087-4.448,17.104
	c-1.862,12.994-2.235,66.52,4.448,81.017c0,0-3.727,3.342-1.491,7.789c0,0-4.448,2.248-4.448,5.602
	c0,3.33,2.958,14.484,2.958,14.484s-1.839,3.715,0,11.155c0,0-1.094,4.459-1.839,11.503c-0.758,7.069-7.465,21.565-7.465,21.565
	s-12.296,3.486-15.278,11.731h-14.46v30.64h-23.608v72.758h317.827v-72.758h-23.607v-30.64h-19.618
	c-0.745-1.214-2.02-2.656-4.182-3.546c0,0-7.801-77.674-6.684-86.978l10.036-10.782l-2.223-56.495c0,0,2.223-2.585,1.466-11.154
	l5.962-3.342l-1.491-24.894c0,0,7.055-3.354,7.055-7.428c0-4.099-3.33-49.427-3.33-49.427l-9.664-69.14
	c0,0,9.664-5.577,11.131-9.665c0,0,9.676,2.597,14.508-5.95c4.82-8.546,11.515-34.942,13.751-61.7c0,0,8.534,1.106,14.484-5.192
	c5.95-6.323,19.353-30.123,23.427-37.551c4.075-7.441,0.746-8.187-5.589-16.347l11.9-17.466L772.827,557.496z M608.053,427.522
	v0.997c0,0,0.229,5.47,2.958,7.441c2.74,1.972,4.207,7.164,5.71,8.919c1.489,1.731,1.731,4.941,1.731,4.941l-10.169-0.746
	l-1.718-4.195L608.053,427.522z M539.418,367.324c0,0,0.721,3.967-1.251,10.146c0,0-2.212,5.961,1.743,7.452l-9.916,14.616
	l-7.67-7.933c0,0-0.757-6.695-1.995-9.171c0,0,3.715-8.174-0.974-13.378c0,0-3.715-5.445-5.445-9.665l21.793,0.265
	C535.704,359.656,536.677,364.849,539.418,367.324z M501.002,339.318l34.45,3.221l-0.24,8.425l-24.052,2.729
	c0,0-1.743-4.952-7.176-7.693l-3.462-3.209L501.002,339.318z"/>
</svg>
